HIERARCHY
ROOT hip
{
  OFFSET 0 0 0
  CHANNELS 6 Xposition Yposition Zposition Zrotation Yrotation Xrotation
  JOINT abdomen
  {
    OFFSET 0 20.6881 -0.73152
    CHANNELS 3 Zrotation Xrotation Yrotation
    JOINT chest
    {
      OFFSET 0 11.7043 -0.48768
      CHANNELS 3 Zrotation Xrotation Yrotation
      JOINT neck
      {
        OFFSET 0 22.1894 -2.19456
        CHANNELS 3 Zrotation Xrotation Yrotation
        JOINT head
        {
          OFFSET -0.24384 7.07133 1.2192
          CHANNELS 3 Zrotation Xrotation Yrotation
          JOINT leftEye
          {
            OFFSET 4.14528 8.04674 8.04672
            CHANNELS 3 Zrotation Xrotation Yrotation
            End Site
            {
              OFFSET 1 0 0
            }
          }
          JOINT rightEye
          {
            OFFSET -3.6576 8.04674 8.04672
            CHANNELS 3 Zrotation Xrotation Yrotation
            End Site
            {
              OFFSET 1 0 0
            }
          }
        }
      }
      JOINT rCollar
      {
        OFFSET -2.68224 19.2634 -4.8768
        CHANNELS 3 Zrotation Xrotation Yrotation
        JOINT rShldr
        {
          OFFSET -8.77824 -1.95073 1.46304
          CHANNELS 3 Zrotation Xrotation Yrotation
          JOINT rForeArm
          {
            OFFSET -28.1742 -1.7115 0.48768
            CHANNELS 3 Zrotation Xrotation Yrotation
            JOINT rHand
            {
              OFFSET -22.5879 0.773209 7.07136
              CHANNELS 3 Zrotation Xrotation Yrotation
              JOINT rThumb1
              {
                OFFSET -1.2192 -0.487915 3.41376
                CHANNELS 3 Zrotation Xrotation Yrotation
                JOINT rThumb2
                {
                  OFFSET -3.37035 -0.52449 3.41376
                  CHANNELS 3 Zrotation Xrotation Yrotation
                  End Site
                  {
                    OFFSET -1.78271 -1.18214 1.43049
                  }
                }
              }
              JOINT rIndex1
              {
                OFFSET -7.75947 0.938293 5.60832
                CHANNELS 3 Zrotation Xrotation Yrotation
                JOINT rIndex2
                {
                  OFFSET -2.54057 -0.884171 1.56538
                  CHANNELS 3 Zrotation Xrotation Yrotation
                  End Site
                  {
                    OFFSET -1.62519 -0.234802 1.16502
                  }
                }
              }
              JOINT rMid1
              {
                OFFSET -8.24714 1.18213 3.41376
                CHANNELS 3 Zrotation Xrotation Yrotation
                JOINT rMid2
                {
                  OFFSET -3.10165 -0.590103 1.0647
                  CHANNELS 3 Zrotation Xrotation Yrotation
                  End Site
                  {
                    OFFSET -2.48547 -0.328903 0.83742
                  }
                }
              }
              JOINT rRing1
              {
                OFFSET -8.82822 0.546677 1.51678
                CHANNELS 3 Zrotation Xrotation Yrotation
                JOINT rRing2
                {
                  OFFSET -2.60934 -0.819778 -0.0198488
                  CHANNELS 3 Zrotation Xrotation Yrotation
                  End Site
                  {
                    OFFSET -2.33842 -0.294052 0.168128
                  }
                }
              }
              JOINT rPinky1
              {
                OFFSET -8.27202 -0.0477905 -0.4584
                CHANNELS 3 Zrotation Xrotation Yrotation
                JOINT rPinky2
                {
                  OFFSET -1.82734 -0.647385 -0.700984
                  CHANNELS 3 Zrotation Xrotation Yrotation
                  End Site
                  {
                    OFFSET -1.69225 -0.51767 -0.607171
                  }
                }
              }
            }
          }
        }
      }
      JOINT lCollar
      {
        OFFSET 2.68224 19.2634 -4.8768
        CHANNELS 3 Zrotation Xrotation Yrotation
        JOINT lShldr
        {
          OFFSET 8.77824 -1.95073 1.46304
          CHANNELS 3 Zrotation Xrotation Yrotation
          JOINT lForeArm
          {
            OFFSET 28.1742 -1.7115 0.48768
            CHANNELS 3 Zrotation Xrotation Yrotation
            JOINT lHand
            {
              OFFSET 22.5879 0.773209 7.07136
              CHANNELS 3 Zrotation Xrotation Yrotation
              JOINT lThumb1
              {
                OFFSET 1.2192 -0.487915 3.41376
                CHANNELS 3 Zrotation Xrotation Yrotation
                JOINT lThumb2
                {
                  OFFSET 3.37035 -0.52449 3.41376
                  CHANNELS 3 Zrotation Xrotation Yrotation
                  End Site
                  {
                    OFFSET 1.78271 -1.18214 1.43049
                  }
                }
              }
              JOINT lIndex1
              {
                OFFSET 7.75947 0.938293 5.60832
                CHANNELS 3 Zrotation Xrotation Yrotation
                JOINT lIndex2
                {
                  OFFSET 2.54057 -0.884171 1.56538
                  CHANNELS 3 Zrotation Xrotation Yrotation
                  End Site
                  {
                    OFFSET 1.62519 -0.234802 1.16502
                  }
                }
              }
              JOINT lMid1
              {
                OFFSET 8.24714 1.18213 3.41376
                CHANNELS 3 Zrotation Xrotation Yrotation
                JOINT lMid2
                {
                  OFFSET 3.10165 -0.590103 1.0647
                  CHANNELS 3 Zrotation Xrotation Yrotation
                  End Site
                  {
                    OFFSET 2.48547 -0.328903 0.83742
                  }
                }
              }
              JOINT lRing1
              {
                OFFSET 8.82822 0.546677 1.51678
                CHANNELS 3 Zrotation Xrotation Yrotation
                JOINT lRing2
                {
                  OFFSET 2.60934 -0.819778 -0.0198488
                  CHANNELS 3 Zrotation Xrotation Yrotation
                  End Site
                  {
                    OFFSET 2.33842 -0.294052 0.168128
                  }
                }
              }
              JOINT lPinky1
              {
                OFFSET 8.27202 -0.0477905 -0.4584
                CHANNELS 3 Zrotation Xrotation Yrotation
                JOINT lPinky2
                {
                  OFFSET 1.82734 -0.647385 -0.700984
                  CHANNELS 3 Zrotation Xrotation Yrotation
                  End Site
                  {
                    OFFSET 1.69225 -0.51767 -0.607171
                  }
                }
              }
            }
          }
        }
      }
    }
  }
  JOINT rButtock
  {
    OFFSET -8.77824 4.35084 1.2192
    CHANNELS 3 Zrotation Xrotation Yrotation
    JOINT rThigh
    {
      OFFSET 0 -1.70687 -2.19456
      CHANNELS 3 Zrotation Xrotation Yrotation
      JOINT rShin
      {
        OFFSET 0 -36.8199 0.73152
        CHANNELS 3 Zrotation Xrotation Yrotation
        JOINT rFoot
        {
          OFFSET 0.73152 -45.1104 -5.12064
          CHANNELS 3 Zrotation Xrotation Yrotation
          End Site
          {
            OFFSET -1.1221 -3.69964 12.103
          }
        }
      }
    }
  }
  JOINT lButtock
  {
    OFFSET 8.77824 4.35084 1.2192
    CHANNELS 3 Zrotation Xrotation Yrotation
    JOINT lThigh
    {
      OFFSET 0 -1.70687 -2.19456
      CHANNELS 3 Zrotation Xrotation Yrotation
      JOINT lShin
      {
        OFFSET 0 -36.8199 0.73152
        CHANNELS 3 Zrotation Xrotation Yrotation
        JOINT lFoot
        {
          OFFSET -0.73152 -45.1104 -5.12064
          CHANNELS 3 Zrotation Xrotation Yrotation
          End Site
          {
            OFFSET 1.1221 -3.69964 12.103
          }
        }
      }
    }
  }
}
MOTION
Frames:	4
Frame Time:	0.00833333
-20.8176 84.8152 216.669 0.0 0.0 0.0 -0.304925 -0.00138248 -0.00870873 -0.0841232 -0.00211304 -0.0145739 -1.28253e-14 7.95139e-16 7.14382e-17 -3.85735e-14 9.54166e-15 2.15868e-16 -0.0 0.0 0.0 -0.0 0.0 0.0 -6.26331e-15 -1.00945e-17 1.98785e-16 -1.32846e-13 -5.96354e-16 1.19271e-15 -2.32086e-12 6.87596e-13 2.22639e-14 -2.66077e-11 -7.38038e-13 9.54166e-14 -6.27592e-11 -1.06531e-13 2.95792e-13 -1.08392e-10 -1.81292e-13 5.24792e-13 -6.27555e-11 -1.08139e-13 3.02153e-13 7.73091 5.47488 0.417314 -6.27591e-11 -1.06946e-13 3.05333e-13 2.90554 0.965183 0.102902 -6.27529e-11 -1.05952e-13 3.06128e-13 10.2786 0.731801 0.0259123 -6.27696e-11 -1.02175e-13 3.14875e-13 2.22167 -0.733487 -0.20892 -6.45933e-15 -9.31803e-18 -9.93923e-17 -1.35588e-13 -3.10601e-16 -5.96354e-16 -2.32827e-12 -6.98927e-13 2.8625e-14 -2.6608e-11 6.6901e-13 1.20861e-13 -6.27697e-11 -6.67443e-14 3.11694e-13 -1.08388e-10 -1.17681e-13 5.45465e-13 -6.27734e-11 -6.79844e-14 3.21236e-13 -7.73091 5.47488 -0.417314 -6.27688e-11 -6.69904e-14 3.11694e-13 -2.90554 0.965183 -0.102902 -6.277e-11 -6.71892e-14 3.07719e-13 -10.2786 0.731801 -0.0259123 -6.27621e-11 -6.48038e-14 2.95792e-13 -2.22167 -0.733487 0.20892 -2.03217e-16 0.0 -3.88251e-19 0.270492 -2.6877 -0.0303701 -0.00708454 -0.684096 -0.0619115 -0.50112 3.37132 0.125906 2.03217e-16 0.0 3.88251e-19 -0.734667 -3.8709 0.0596587 0.00369307 1.45912 0.0297791 0.504938 2.41135 -0.106806
-22.9135 83.5084 206.227 -178.728 -22.793 176.832 0.477986 3.14957 1.02176 -0.0204583 -0.645353 0.269833 1.70501 0.883484 4.1315 -3.98907 -3.54673 7.3585 -0.0 0.0 0.0 -0.0 0.0 0.0 1.65229e-14 -1.08841e-14 -1.1225e-13 19.5569 15.4589 1.38388 -27.5299 -25.0234 13.5113 0.00307445 1.23246 0.173068 2.24475e-12 1.80466e-11 4.09339e-11 4.78398e-12 3.28521e-11 7.01497e-11 2.24848e-12 1.80432e-11 4.09335e-11 7.73091 5.47488 0.417314 2.24321e-12 1.80449e-11 4.09382e-11 2.90554 0.965183 0.102902 2.25136e-12 1.80461e-11 4.09389e-11 10.2786 0.731801 0.0259123 2.23526e-12 1.80491e-11 4.09486e-11 2.22167 -0.733487 -0.20892 1.63596e-14 -1.08845e-14 -1.12535e-13 -20.9706 17.9874 -4.76869 23.955 -21.8131 -14.6931 -0.0687192 -5.82094 0.802914 6.81104e-11 -8.26099e-10 2.83275e-11 1.18502e-10 -1.43251e-09 5.08532e-11 6.81055e-11 -8.261e-10 2.83389e-11 -7.73091 5.47488 -0.417314 6.81108e-11 -8.26101e-10 2.83264e-11 -2.90554 0.965183 -0.102902 6.81077e-11 -8.26102e-10 2.83243e-11 -10.2786 0.731801 -0.0259123 6.81183e-11 -8.26098e-10 2.83123e-11 -2.22167 -0.733487 0.20892 -2.03217e-16 0.0 -3.88251e-19 0.259093 -4.50989 -0.493106 0.0328869 8.82271 0.122539 -1.05729 -2.47125 -3.69208 2.03217e-16 0.0 3.88251e-19 0.13349 -8.61242 -1.60942 0.0108853 12.0259 -0.1105 0.280426 -1.22924 -1.73692
-22.5922 83.5051 206.194 -178.625 -22.7619 176.842 1.17616 6.47397 2.1228 0.0689368 -1.31197 0.570988 3.35799 1.79696 8.50173 -7.22162 -7.1 15.2286 -0.0 0.0 0.0 -0.0 0.0 0.0 4.07934e-14 -2.29135e-14 -2.28624e-13 39.2534 31.7836 3.24343 -39.37 -46.1045 37.7946 -0.00177442 2.52629 0.355025 7.50573e-11 4.45066e-11 7.97184e-11 1.31403e-10 8.02009e-11 1.36517e-10 7.50611e-11 4.45014e-11 7.97109e-11 7.73091 5.47488 0.417314 7.50539e-11 4.45036e-11 7.97172e-11 2.90554 0.965183 0.102902 7.50643e-11 4.4505e-11 7.97177e-11 10.2786 0.731801 0.0259123 7.50488e-11 4.4507e-11 7.97286e-11 2.22167 -0.733487 -0.20892 4.06644e-14 -2.2915e-14 -2.28894e-13 -39.1859 36.5554 -11.6493 34.5952 -39.6115 -37.5732 0.0396651 -11.9795 1.68097 2.2033e-10 -1.78867e-09 6.72069e-11 3.82151e-10 -3.09971e-09 1.20285e-10 2.20324e-10 -1.78867e-09 6.72204e-11 -7.73091 5.47488 -0.417314 2.2033e-10 -1.78867e-09 6.72045e-11 -2.90554 0.965183 -0.102902 2.20325e-10 -1.78867e-09 6.72045e-11 -10.2786 0.731801 -0.0259123 2.20338e-10 -1.78867e-09 6.71924e-11 -2.22167 -0.733487 0.20892 -2.03217e-16 0.0 -3.88251e-19 0.202144 -6.43255 -0.990004 0.00555068 18.8731 0.332521 -2.49935 -8.58028 -7.81672 2.03217e-16 0.0 3.88251e-19 0.730742 -13.6107 -3.43142 0.0791493 23.2001 -0.276108 -0.185289 -5.06883 -3.48608
-22.2637 83.5063 206.157 -178.512 -22.613 176.817 1.70001 9.4392 3.12035 0.126037 -1.93165 0.839072 4.73578 2.59539 12.4059 -9.27489 -9.93653 22.3865 -0.0 0.0 0.0 -0.0 0.0 0.0 6.20953e-14 -3.26323e-14 -3.37148e-13 55.5879 46.2433 5.79092 -31.2356 -51.385 73.1105 -0.0131527 3.69726 0.520166 1.32253e-10 5.43528e-11 1.2221e-10 2.31135e-10 9.8919e-11 2.094e-10 1.32256e-10 5.4346e-11 1.22196e-10 7.73091 5.47488 0.417314 1.32248e-10 5.43487e-11 1.22204e-10 2.90554 0.965183 0.102902 1.3226e-10 5.43503e-11 1.22204e-10 10.2786 0.731801 0.0259123 1.32245e-10 5.43516e-11 1.22216e-10 2.22167 -0.733487 -0.20892 6.19974e-14 -3.2635e-14 -3.37405e-13 -49.3135 51.9696 -22.4466 30.9835 -44.2996 -66.0765 0.303195 -17.4488 2.51198 3.29871e-10 -2.47817e-09 8.43591e-11 5.72283e-10 -4.29729e-09 1.51469e-10 3.29863e-10 -2.47816e-09 8.43743e-11 -7.73091 5.47488 -0.417314 3.2987e-10 -2.47817e-09 8.43558e-11 -2.90554 0.965183 -0.102902 3.29863e-10 -2.47817e-09 8.43575e-11 -10.2786 0.731801 -0.0259123 3.29879e-10 -2.47816e-09 8.43453e-11 -2.22167 -0.733487 0.20892 -2.03217e-16 0.0 -3.88251e-19 0.147159 -8.15227 -1.4285 -0.0894637 27.8353 0.550815 -4.54312 -13.8906 -11.663 2.03217e-16 0.0 3.88251e-19 1.00368 -18.0372 -5.14641 0.205421 33.1588 -0.458412 -0.79456 -8.47953 -5.0515
